<?xml version="1.0" encoding="UTF-8"?>
<svg xmlns="http://www.w3.org/2000/svg" xmlns:xlink="http://www.w3.org/1999/xlink" width="45px" height="45px" viewBox="0 0 45 45" version="1.1">
<g id="surface1">
<path style=" stroke:none;fill-rule:nonzero;fill:rgb(15.294118%,52.941176%,96.078431%);fill-opacity:1;" d="M 45 22.5 C 45 34.921875 34.921875 45 22.5 45 C 10.078125 45 0 34.921875 0 22.5 C 0 10.078125 10.078125 0 22.5 0 C 34.921875 0 45 10.078125 45 22.5 Z M 45 22.5 "/>
<path style=" stroke:none;fill-rule:nonzero;fill:rgb(100%,100%,100%);fill-opacity:1;" d="M 25.742188 11.929688 L 19.257812 11.929688 C 13.332031 11.929688 11.929688 13.332031 11.929688 19.257812 L 11.929688 25.742188 C 11.929688 31.667969 13.332031 33.070312 19.257812 33.070312 L 25.742188 33.070312 C 31.667969 33.070312 33.070312 31.667969 33.070312 25.742188 L 33.070312 19.257812 C 33.070312 13.332031 31.652344 11.929688 25.742188 11.929688 Z M 28.996094 27.011719 L 27.457031 27.011719 C 26.875 27.011719 26.695312 26.550781 25.652344 25.492188 C 24.746094 24.613281 24.339844 24.492188 24.113281 24.492188 C 23.804688 24.492188 23.710938 24.578125 23.710938 25.015625 L 23.710938 26.398438 C 23.710938 26.777344 23.589844 26.996094 22.609375 26.996094 C 20.984375 26.996094 19.179688 26.011719 17.90625 24.179688 C 16 21.492188 15.480469 19.480469 15.480469 19.058594 C 15.480469 18.839844 15.570312 18.628906 16 18.628906 L 17.539062 18.628906 C 17.925781 18.628906 18.074219 18.808594 18.222656 19.226562 C 18.984375 21.417969 20.25 23.34375 20.773438 23.34375 C 20.964844 23.34375 21.058594 23.257812 21.058594 22.757812 L 21.058594 20.492188 C 20.992188 19.449219 20.449219 19.363281 20.449219 18.988281 C 20.449219 18.808594 20.59375 18.628906 20.835938 18.628906 L 23.25 18.628906 C 23.578125 18.628906 23.699219 18.808594 23.699219 19.195312 L 23.699219 22.253906 C 23.699219 22.578125 23.847656 22.703125 23.9375 22.703125 C 24.128906 22.703125 24.292969 22.578125 24.652344 22.222656 C 25.757812 20.988281 26.546875 19.078125 26.546875 19.078125 C 26.648438 18.851562 26.828125 18.644531 27.214844 18.644531 L 28.753906 18.644531 C 29.214844 18.644531 29.324219 18.882812 29.214844 19.210938 C 29.027344 20.105469 27.144531 22.757812 27.144531 22.757812 C 26.984375 23.03125 26.921875 23.144531 27.144531 23.449219 C 27.308594 23.671875 27.847656 24.132812 28.199219 24.550781 C 28.859375 25.300781 29.367188 25.921875 29.5 26.355469 C 29.648438 26.789062 29.429688 27.011719 28.996094 27.011719 Z M 28.996094 27.011719 "/>
</g>
</svg>
